<?xml version="1.0" encoding="UTF-8" standalone="no"?>
<!-- Created with Inkscape (http://www.inkscape.org/) -->
<svg
   xmlns:dc="http://purl.org/dc/elements/1.1/"
   xmlns:cc="http://creativecommons.org/ns#"
   xmlns:rdf="http://www.w3.org/1999/02/22-rdf-syntax-ns#"
   xmlns:svg="http://www.w3.org/2000/svg"
   xmlns="http://www.w3.org/2000/svg"
   xmlns:sodipodi="http://sodipodi.sourceforge.net/DTD/sodipodi-0.dtd"
   xmlns:inkscape="http://www.inkscape.org/namespaces/inkscape"
   width="360"
   height="360"
   id="svg6242"
   sodipodi:version="0.32"
   inkscape:version="0.46"
   version="1.0"
   inkscape:export-filename="C:\Users\Iano\Desktop\RealSize.png"
   inkscape:export-xdpi="115.99999"
   inkscape:export-ydpi="115.99999"
   sodipodi:docname="RealSize.svg"
   inkscape:output_extension="org.inkscape.output.svg.inkscape">
  <defs
     id="defs6244">
    <inkscape:perspective
       sodipodi:type="inkscape:persp3d"
       inkscape:vp_x="0 : 526.18109 : 1"
       inkscape:vp_y="0 : 1000 : 0"
       inkscape:vp_z="744.09448 : 526.18109 : 1"
       inkscape:persp3d-origin="372.04724 : 350.78739 : 1"
       id="perspective6250" />
  </defs>
  <sodipodi:namedview
     id="base"
     pagecolor="#ffffff"
     bordercolor="#666666"
     borderopacity="1.0"
     gridtolerance="10000"
     guidetolerance="10"
     objecttolerance="10"
     inkscape:pageopacity="0.0"
     inkscape:pageshadow="2"
     inkscape:zoom="0.35"
     inkscape:cx="375"
     inkscape:cy="520"
     inkscape:document-units="in"
     inkscape:current-layer="layer1"
     showgrid="false"
     units="in" />
  <metadata
     id="metadata6247">
    <rdf:RDF>
      <cc:Work
         rdf:about="">
        <dc:format>image/svg+xml</dc:format>
        <dc:type
           rdf:resource="http://purl.org/dc/dcmitype/StillImage" />
      </cc:Work>
    </rdf:RDF>
  </metadata>
  <g
     inkscape:label="Layer 1"
     inkscape:groupmode="layer"
     id="layer1">
    <path
       style="fill:#c56525;fill-opacity:1;fill-rule:evenodd;stroke:none;stroke-width:1px;stroke-linecap:butt;stroke-linejoin:miter;stroke-opacity:1;display:inline"
       d="M 115.08178,142.07303 C 123.4211,149.11125 135.1055,154.70667 144.15462,157.13159 C 156.98898,129.98426 177.16975,63.576999 188.58463,35.838239 C 189.11693,36.488829 191.99834,45.368739 191.99834,45.368739 L 209.83194,46.389079 C 209.83194,46.389079 212.54172,34.051869 213.42898,32.336629 C 221.17688,46.708729 240.72326,154.18154 239.75476,159.24645 C 257.55725,158.65502 266.42071,154.33329 276.29785,149.60166 C 266.53897,122.39528 238.55744,52.821749 216.91046,19.109339 C 201.41467,20.410569 197.27571,29.417694 179.59151,27.584204 C 174.68247,49.881649 128.03439,123.67903 115.08178,142.07303 z"
       id="path5365"
       sodipodi:nodetypes="ccccccccccc" />
    <path
       sodipodi:nodetypes="cssssccssssc"
       id="path5368"
       d="M 195.95367,48.775639 C 188.97486,50.329659 183.97514,55.509609 184.33605,61.326249 C 184.74859,67.973759 192.00226,73.214379 200.54322,72.692859 C 209.08418,72.171299 215.66705,65.914339 215.25459,59.266719 C 214.84201,52.619209 207.08309,47.836259 198.54218,48.357789 C 197.47456,48.422979 196.95062,48.553669 195.95367,48.775639 z M 198.3986,55.126159 C 198.80306,55.035769 199.22539,54.991219 199.65869,54.965619 C 203.12503,54.761019 206.07948,56.805689 206.2554,59.551019 C 206.43139,62.296339 203.74931,64.699029 200.28301,64.903669 C 196.8166,65.108279 193.86219,63.063559 193.68623,60.318319 C 193.53235,57.916109 195.56776,55.759039 198.3986,55.126159 z"
       style="fill:#c56525;fill-opacity:1;fill-rule:evenodd;stroke:none;stroke-width:1px;stroke-linecap:butt;stroke-linejoin:miter;stroke-opacity:1;display:inline" />
    <path
       style="fill:#c56525;fill-opacity:1;fill-rule:evenodd;stroke:none;stroke-width:1px;stroke-linecap:butt;stroke-linejoin:miter;stroke-opacity:1;display:inline"
       d="M 144.79265,174.13655 C 152.80674,152.31219 174.45272,93.544561 179.1251,71.542779 C 194.20696,72.725709 204.45749,73.602749 218.59308,73.839339 C 227.28733,98.916551 232.2943,154.65765 235.25152,177.07344 C 227.03346,179.62616 222.50791,180.3861 210.56132,180.7894 C 210.97533,159.08338 210.76743,106.32645 207.04136,89.470299 C 205.91759,89.411059 205.97212,89.607979 205.20609,89.874129 C 204.96958,116.01602 205.20605,171.44453 202.3672,198.05964 C 189.82851,199.36083 188.39231,199.06507 174.19755,196.40357 C 181.53148,163.2235 192.78752,104.07895 192.84661,88.760539 C 192.19609,88.819669 190.91345,88.356639 190.91345,88.356639 C 190.91345,88.356639 175.18099,158.13711 168.67508,181.73575 C 159.56683,181.67663 152.1561,179.40039 144.79265,174.13655 z"
       id="path5370"
       sodipodi:nodetypes="ccccccccccccc" />
    <g
       style="fill:#8f3939;fill-opacity:1;display:inline"
       id="g5372"
       transform="matrix(3.962935,0,0,3.962935,-570.93292,-1413.0654)">
      <path
         sodipodi:nodetypes="cccccsccccccccscccc"
         id="path5374"
         d="M 146.51387,428.92045 L 146.66163,430.29236 C 146.66163,430.29236 151.00667,433.47257 153.83778,433.94375 C 157.04881,426.43672 163.69498,406.34421 165.17114,403.44001 C 165.15717,403.27177 165.89884,405.56416 165.99175,405.76662 C 165.98067,405.65773 170.45551,406.27981 170.4468,406.17189 C 170.44222,406.11522 171.21231,402.84491 171.31549,402.69595 C 174.57449,405.61908 177.82806,432.72147 178.03127,434.66343 C 182.55739,434.26997 184.4556,433.52396 187.18574,432.24077 C 186.30579,430.31818 180.37448,413.47884 172.34322,399.38157 C 172.28183,399.25965 172.16804,399.70027 172.06304,399.52556 C 171.95808,399.35084 186.60138,431.13781 186.52003,430.97735 C 185.2113,431.43991 177.85715,433.0255 177.85048,432.95044 C 178.04438,428.04846 172.07884,402.10221 170.36946,401.36197 C 170.33909,401.23363 169.76529,404.92948 169.76243,404.89167 C 169.75198,404.75294 166.05656,404.57742 166.04614,404.49836 C 166.077,404.29207 165.29252,402.29804 165.12746,401.82512 L 153.46841,432.29746 L 146.51387,428.92045 z"
         style="fill:#8f3939;fill-opacity:1;fill-rule:evenodd;stroke:none;stroke-width:1px;stroke-linecap:butt;stroke-linejoin:miter;stroke-opacity:1" />
      <path
         sodipodi:nodetypes="csscsccssssc"
         style="fill:#8f3939;fill-opacity:1;fill-rule:evenodd;stroke:none;stroke-width:1px;stroke-linecap:butt;stroke-linejoin:miter;stroke-opacity:1"
         d="M 167.18616,405.95486 C 165.42042,406.25 164.01008,407.52115 164.02498,408.93649 C 164.05516,411.80558 165.86569,412.64514 168.00649,412.61881 C 170.14725,412.5925 172.15525,411.39049 171.81637,408.77203 C 171.69035,407.59472 170.10769,405.86243 167.9669,405.88877 C 167.69931,405.89205 167.43839,405.91271 167.18616,405.95486 z M 167.72443,408.39349 C 167.82676,408.3763 167.93287,408.37046 168.04148,408.36933 C 168.91022,408.36036 169.61824,408.89109 169.62206,409.55921 C 169.6259,410.22731 168.92091,410.77878 168.05216,410.78776 C 167.18345,410.79671 166.47542,410.26597 166.4716,409.59787 C 166.46825,409.01328 167.00816,408.51382 167.72443,408.39349 z"
         id="path5376" />
      <path
         sodipodi:nodetypes="ccccccccccccccccccccccc"
         id="path5378"
         d="M 154.11638,437.12238 C 154.11638,437.12238 154.09422,437.79461 154.14594,438.33386 C 154.87727,438.87312 157.83811,440.44689 159.9966,440.22499 C 161.47546,434.7434 165.71998,416.73251 165.71998,416.73251 C 165.71998,416.73251 165.70953,416.75875 166.14083,416.87406 C 168.38939,426.37112 160.615,441.26583 161.62406,444.03885 C 164.47992,444.53664 165.59406,444.66611 168.52231,444.43228 C 169.1313,438.7973 169.33057,417.17905 169.33057,417.17905 C 169.33057,417.17905 169.59114,417.05989 169.9329,417.06292 C 171.17409,422.78365 170.77708,438.68563 170.7495,440.06197 C 172.87899,440.21204 175.06523,439.56569 176.84041,439.18949 C 176.5324,434.27756 174.73884,420.05252 172.82694,413.38158 C 172.62887,413.10799 172.38406,412.56488 172.38406,412.56488 C 172.38406,412.56488 176.05843,434.52736 176.4746,437.70437 C 174.65983,438.13337 170.73928,438.56995 170.73928,438.56995 C 170.73928,438.56995 170.41404,416.62989 169.93752,415.777 C 169.28367,415.81057 168.89222,415.89254 168.89222,415.89254 L 168.04935,442.85546 C 168.04935,442.85546 163.61167,442.88739 161.57351,442.44305 C 161.75151,441.88052 165.93051,422.61142 166.10197,415.78432 C 165.63815,415.62048 165.39154,415.60739 165.39154,415.60739 L 159.73065,438.8953 L 154.11638,437.12238 z"
         style="fill:#8f3939;fill-opacity:1;fill-rule:evenodd;stroke:none;stroke-width:1px;stroke-linecap:butt;stroke-linejoin:miter;stroke-opacity:1" />
    </g>
    <path
       sodipodi:nodetypes="ccccccccccc"
       id="path5382"
       d="M 199.95633,299.77999 C 208.29569,306.81817 219.06002,311.7863 228.10914,314.21126 C 240.9435,287.06396 270.17197,200.09922 273.95721,194.06648 C 274.48959,194.71711 277.54517,206.16279 277.54517,206.16279 C 277.54517,206.16279 289.74831,206.10204 293.75643,206.37877 C 294.86641,199.94843 296.74048,195.55242 296.7996,193.67169 C 304.71481,208.04379 322.6931,293.17612 324.11429,316.57705 C 341.91683,315.98566 348.77758,312.51469 358.65476,307.78306 C 348.89591,280.5766 323.48323,216.51651 303.58768,182.45393 C 288.21812,184.5127 282.63841,184.73726 265.91938,185.09104 C 257.8579,206.68792 212.90895,281.38607 199.95633,299.77999 z"
       style="fill:#6f9155;fill-opacity:1;fill-rule:evenodd;stroke:none;stroke-width:1px;stroke-linecap:butt;stroke-linejoin:miter;stroke-opacity:1" />
    <path
       style="fill:#6f9155;fill-opacity:1;fill-rule:evenodd;stroke:none;stroke-width:1px;stroke-linecap:butt;stroke-linejoin:miter;stroke-opacity:1"
       d="M 281.01726,208.15551 C 274.09381,209.7068 269.13233,214.88493 269.48821,220.70165 C 269.89496,227.34939 277.08614,232.33833 285.55878,231.81994 C 294.03134,231.30163 300.59503,225.46624 300.18823,218.81854 C 299.78151,212.17079 292.56652,207.21578 284.09392,207.73417 C 283.03479,207.79892 282.00632,207.93382 281.01726,208.15551 z M 283.44027,214.50687 C 283.84152,214.41659 284.26048,214.37224 284.69022,214.34684 C 288.12886,214.1435 291.05882,216.18925 291.23227,218.93465 C 291.40581,221.68002 288.74438,224.08171 285.30578,224.28505 C 281.86715,224.48843 278.93723,222.4426 278.76369,219.6972 C 278.61195,217.29499 280.63182,215.13872 283.44027,214.50687 z"
       id="path5384" />
    <path
       sodipodi:nodetypes="ccccccccccccc"
       id="path5386"
       d="M 230.00176,332.16486 C 238.01588,310.74389 259.16,254.37617 263.83242,232.78107 C 278.91424,233.94213 288.49567,234.63873 302.63122,234.87092 C 311.32546,259.48467 315.99784,313.42026 318.95511,335.42164 C 310.85411,338.37827 307.65848,338.84078 295.77039,338.20215 C 296.18448,316.89734 295.47476,265.11561 291.74865,248.57103 C 290.62492,248.51297 290.30309,248.80123 288.90972,248.80321 C 288.67313,274.46187 288.90968,329.03002 286.07079,355.15309 C 273.53214,356.43027 273.76869,356.13998 259.57393,353.5277 C 266.9079,320.96093 277.4948,262.90968 277.55397,247.87442 C 276.90337,247.93248 274.95163,247.64223 274.95163,247.64223 C 274.95163,247.64223 259.21913,315.96862 252.71322,339.13103 C 243.60497,339.07289 237.36529,337.33138 230.00176,332.16486 z"
       style="fill:#6f9155;fill-opacity:1;fill-rule:evenodd;stroke:none;stroke-width:1px;stroke-linecap:butt;stroke-linejoin:miter;stroke-opacity:1" />
    <path
       sodipodi:type="arc"
       style="fill:#782121;fill-opacity:1;stroke:#000000;stroke-width:0.04707803;stroke-miterlimit:4;stroke-dasharray:none;stroke-opacity:1;display:inline"
       id="path5388"
       sodipodi:cx="569.28125"
       sodipodi:cy="642.70593"
       sodipodi:rx="2.84375"
       sodipodi:ry="2.34375"
       d="M 572.125,642.70593 A 2.84375,2.34375 0 1 1 566.4375,642.70593 A 2.84375,2.34375 0 1 1 572.125,642.70593 z"
       transform="matrix(1.8335941,0,0,1.8632222,-967.89834,-1104.3326)" />
    <path
       transform="matrix(0.7847622,0,0,0.8652022,-370.8184,-462.89926)"
       d="M 572.125,642.70593 A 2.84375,2.34375 0 1 1 566.4375,642.70593 A 2.84375,2.34375 0 1 1 572.125,642.70593 z"
       sodipodi:ry="2.34375"
       sodipodi:rx="2.84375"
       sodipodi:cy="642.70593"
       sodipodi:cx="569.28125"
       id="path5390"
       style="fill:#002121;fill-opacity:1;stroke:#000000;stroke-width:0.04707803;stroke-miterlimit:4;stroke-dasharray:none;stroke-opacity:1;display:inline"
       sodipodi:type="arc" />
  </g>
</svg>
